<svg id="Layer_2" data-name="Layer 2" xmlns="http://www.w3.org/2000/svg" viewBox="0 0 275.98 336.77"><title>logo</title><path d="M419.5,349.64" transform="translate(-180.38 -360.79)" style="fill:none;stroke:#000;stroke-miterlimit:10"/><path d="M449.19,600.66l0,0-6.6-3.86L363,550.23l-.05,0c-.2-.14-.41-.29-.62-.42l-.09-.06-2.88-1.69-.07,0a30.69,30.69,0,0,0-13.94-3.34,31.62,31.62,0,0,0-16.58,4.47L304,562.46l-20,10.73-.08,0a6.22,6.22,0,0,1-1.5.81.14.14,0,0,1-.08.05,7.93,7.93,0,0,1-8.62-1.85v0a7.32,7.32,0,0,1-1.42-2l0-.06a8,8,0,0,1,2.62-10h0a7.47,7.47,0,0,1,1.09-.65h0l.45-.28L295.69,548l15.47-9.07,16.22-9.52,115.19-67.59,2.78-1.63,3-1.78.41-.3a18.28,18.28,0,0,0-.1-29.09c-.12-.09-.25-.19-.38-.27l-3.08-1.79-2.66-1.55L360.76,378,343.66,368h0l-4.35-2.53-.81-.47-1-.57-3.5-2h0l0,0h0l-1.55-.91h0a15.31,15.31,0,0,0-4.67-.72,15.64,15.64,0,0,0-5.1.85l-3.09,1.78-2.15,1.24-6.41,3.7L294.36,378l-98.05,56.58-4.68,2.7,0,0h0l-3.4,1.95-1.45.84v0a17.27,17.27,0,0,0-6.36,13.4c0,.14,0,.29,0,.42h0V604.39a17.29,17.29,0,0,0,3,9.5,17.62,17.62,0,0,0,5.42,5.14l-.06.1,7.6,4.39,98.89,57.32,16.52,9.58,6.8,3.93a.07.07,0,0,0,0,0l1.26.73,1.4.8s0,0,.05,0a17.2,17.2,0,0,0,7.28,1.61,17.58,17.58,0,0,0,6.78-1.37h0s0,0,0,0l0,0h0l2.1-1.22,1.31-.76h0l6.2-3.57,16.87-9.74,80.66-46.53,2.81-1.63h0C466.05,618.91,451.63,601.93,449.19,600.66Zm-15,27.53c-25.26,14.52-75.67,43.69-75.67,43.69l-20.26,11.69-.23.13a6.85,6.85,0,0,1-1.48,1h0a15.1,15.1,0,0,1-13.79,1.1h0a14.85,14.85,0,0,1-3.21-1.86c-.29-.22-.58-.45-.85-.69-1.06-.5-2.17-1.08-3.33-1.75l-94.07-54.31L202,616.09a14.32,14.32,0,0,1-3.67-2l-2.44-1.34s-6.38-4.07-6.26-10.42c.08-4.69.09-6.55.08-7.2v-.3c0-.17,0-.35,0-.53v-132a14.73,14.73,0,0,1,0-1.66c0-1.38-.25-3.62-.06-6.77.37-5.87,7.12-9.24,7.12-9.24l7.4-3.82.06,0L300.87,385l6.12-3.53,13.19-7.68.22-.13.17-.1a10.21,10.21,0,0,1,1-.59l.06,0c2.35-1.18,7.28-2.69,13.56.87l.11.06,2.92,1.68.35.32L357.85,387l70.43,40.89,10.38,6s16.57,8.88-3.85,21.64c-1.78,1.11-3.89,2.42-6.28,3.86-25,15.13-79.49,46.33-79.49,46.33l-77,45.34s-14.44,11.29-7.46,24.47,23.83,5.81,23.83,5.81l41.95-22.51s14.54-8.31,28.68-.14,75.12,43.89,75.12,43.89S459.43,613.65,434.16,628.19Z" transform="translate(-180.38 -360.79)"/></svg>